<?xml version="1.0" encoding="UTF-8" standalone="no"?>
<!-- Created with Inkscape (http://www.inkscape.org/) -->

<svg
   xmlns:dc="http://purl.org/dc/elements/1.1/"
   xmlns:cc="http://creativecommons.org/ns#"
   xmlns:rdf="http://www.w3.org/1999/02/22-rdf-syntax-ns#"
   xmlns:svg="http://www.w3.org/2000/svg"
   xmlns="http://www.w3.org/2000/svg"
   xmlns:sodipodi="http://sodipodi.sourceforge.net/DTD/sodipodi-0.dtd"
   xmlns:inkscape="http://www.inkscape.org/namespaces/inkscape"
   width="210mm"
   height="297mm"
   viewBox="0 0 744.09448819 1052.3622047"
   id="svg2"
   version="1.1"
   inkscape:version="0.91 r13725"
   inkscape:export-filename="/Users/x11406/Desktop/manifeste_agile.png"
   inkscape:export-xdpi="90"
   inkscape:export-ydpi="90"
   sodipodi:docname="dessin-1.svg">
  <defs
     id="defs4">
    <linearGradient
       id="linearGradient4236">
      <stop
         style="stop-color:#5d5d5d;stop-opacity:1;"
         offset="0"
         id="stop4238" />
      <stop
         style="stop-color:#000000;stop-opacity:1;"
         offset="1"
         id="stop4240" />
    </linearGradient>
  </defs>
  <sodipodi:namedview
     id="base"
     pagecolor="#ffffff"
     bordercolor="#666666"
     borderopacity="1.0"
     inkscape:pageopacity="1"
     inkscape:pageshadow="2"
     inkscape:zoom="0.49497475"
     inkscape:cx="128.05956"
     inkscape:cy="486.53353"
     inkscape:document-units="px"
     inkscape:current-layer="layer1"
     showgrid="false"
     showguides="true"
     inkscape:guide-bbox="true"
     inkscape:window-width="1381"
     inkscape:window-height="916"
     inkscape:window-x="139"
     inkscape:window-y="17"
     inkscape:window-maximized="0" />
  <metadata
     id="metadata7">
    <rdf:RDF>
      <cc:Work
         rdf:about="">
        <dc:format>image/svg+xml</dc:format>
        <dc:type
           rdf:resource="http://purl.org/dc/dcmitype/StillImage" />
        <dc:title></dc:title>
      </cc:Work>
    </rdf:RDF>
  </metadata>
  <g
     inkscape:label="Calque 1"
     inkscape:groupmode="layer"
     id="layer1">
    <text
       xml:space="preserve"
       style="font-style:normal;font-variant:normal;font-weight:500;font-stretch:normal;font-size:20px;line-height:100%;font-family:'Lucida Grande';-inkscape-font-specification:'Lucida Grande, Medium';text-align:start;letter-spacing:0px;word-spacing:0px;writing-mode:lr-tb;text-anchor:start;fill:#000000;fill-opacity:1;stroke:none;stroke-width:1px;stroke-linecap:butt;stroke-linejoin:miter;stroke-opacity:1"
       x="100.91552"
       y="841.7085"
       id="text4136"
       sodipodi:linespacing="100%"><tspan
         sodipodi:role="line"
         x="100.91552"
         y="841.7085"
         id="tspan4166">L’adaptation au changement plus que le suivi d’un plan</tspan></text>
    <g
       id="g4476"
       transform="translate(10.101525,0)">
      <circle
         r="81.606987"
         cy="121.93993"
         cx="360.03275"
         id="path4168"
         style="opacity:1;fill:#3366cc;fill-opacity:1;fill-rule:nonzero;stroke:none;stroke-width:6;stroke-linecap:round;stroke-linejoin:round;stroke-miterlimit:4;stroke-dasharray:none;stroke-dashoffset:0;stroke-opacity:1" />
      <rect
         y="128.87193"
         x="298.70081"
         height="11.977476"
         width="116.44899"
         id="rect4170"
         style="opacity:1;fill:#ffffff;fill-opacity:1;fill-rule:nonzero;stroke:none;stroke-width:6;stroke-linecap:round;stroke-linejoin:round;stroke-miterlimit:4;stroke-dasharray:none;stroke-dashoffset:0;stroke-opacity:1" />
      <path
         sodipodi:nodetypes="cccc"
         inkscape:connector-curvature="0"
         id="rect4172"
         d="m 412.51055,125.1716 14.64027,9.70794 -14.64027,9.67017 z"
         style="opacity:1;fill:#ffffff;fill-opacity:1;fill-rule:nonzero;stroke:none;stroke-width:6;stroke-linecap:round;stroke-linejoin:round;stroke-miterlimit:4;stroke-dasharray:none;stroke-dashoffset:0;stroke-opacity:1" />
      <path
         inkscape:connector-curvature="0"
         id="path4177"
         d="m 363.4896,66.744182 c -21.25595,0 -38.72136,16.872549 -39.68954,37.898198 l 12.45586,0 c 0.93782,-14.283089 12.70063,-25.463989 27.23368,-25.463989 15.1523,0 27.30329,12.151 27.30329,27.303289 0,11.76096 -7.32208,21.70819 -17.68449,25.57383 l 15.45382,5.20077 c 8.93643,-7.29902 14.66488,-18.39247 14.66488,-30.7746 0,-21.872579 -17.86492,-39.737498 -39.7375,-39.737498 z"
         style="color:#000000;font-style:normal;font-variant:normal;font-weight:normal;font-stretch:normal;font-size:medium;line-height:normal;font-family:sans-serif;text-indent:0;text-align:start;text-decoration:none;text-decoration-line:none;text-decoration-style:solid;text-decoration-color:#000000;letter-spacing:normal;word-spacing:normal;text-transform:none;direction:ltr;block-progression:tb;writing-mode:lr-tb;baseline-shift:baseline;text-anchor:start;white-space:normal;clip-rule:nonzero;display:inline;overflow:visible;visibility:visible;opacity:1;isolation:auto;mix-blend-mode:normal;color-interpolation:sRGB;color-interpolation-filters:linearRGB;solid-color:#000000;solid-opacity:1;fill:#ffffff;fill-opacity:1;fill-rule:nonzero;stroke:none;stroke-width:15.69999981;stroke-linecap:round;stroke-linejoin:round;stroke-miterlimit:4;stroke-dasharray:none;stroke-dashoffset:0;stroke-opacity:1;color-rendering:auto;image-rendering:auto;shape-rendering:auto;text-rendering:auto;enable-background:accumulate" />
      <path
         style="opacity:1;fill:#ffffff;fill-opacity:1;fill-rule:nonzero;stroke:none;stroke-width:6;stroke-linecap:round;stroke-linejoin:round;stroke-miterlimit:4;stroke-dasharray:none;stroke-dashoffset:0;stroke-opacity:1"
         d="m 339.5313,102.64823 -9.70794,14.64027 -9.67017,-14.64027 z"
         id="path4184"
         inkscape:connector-curvature="0"
         sodipodi:nodetypes="cccc" />
      <text
         sodipodi:linespacing="100%"
         id="text4186"
         y="174.25266"
         x="317.40762"
         style="font-style:normal;font-variant:normal;font-weight:600;font-stretch:normal;font-size:28.67811584px;line-height:100%;font-family:'Lucida Grande';-inkscape-font-specification:'Lucida Grande Semi-Bold';text-align:start;letter-spacing:0px;word-spacing:0px;writing-mode:lr-tb;text-anchor:start;fill:#ffffff;fill-opacity:1;stroke:none;stroke-width:1px;stroke-linecap:butt;stroke-linejoin:miter;stroke-opacity:1"
         xml:space="preserve"><tspan
           y="174.25266"
           x="317.40762"
           id="tspan4188"
           sodipodi:role="line">AGILE</tspan></text>
    </g>
    <flowRoot
       xml:space="preserve"
       id="flowRoot4209"
       style="fill:black;stroke:none;stroke-opacity:1;stroke-width:1px;stroke-linejoin:miter;stroke-linecap:butt;fill-opacity:1;font-family:'Lucida Grande';font-style:normal;font-weight:500;font-size:20px;-inkscape-font-specification:'Lucida Grande, Medium';font-stretch:normal;font-variant:normal;text-anchor:start;text-align:start;writing-mode:lr;line-height:100%;letter-spacing:0px;word-spacing:0px"><flowRegion
         id="flowRegion4211"><rect
           id="rect4213"
           width="129.29953"
           height="28.284271"
           x="-325.26913"
           y="46.250271" /></flowRegion><flowPara
         id="flowPara4215"></flowPara></flowRoot>    <text
       xml:space="preserve"
       style="font-style:normal;font-variant:normal;font-weight:500;font-stretch:normal;font-size:27.96384048px;line-height:100%;font-family:'Lucida Grande';-inkscape-font-specification:'Lucida Grande, Medium';text-align:start;letter-spacing:0px;word-spacing:0px;writing-mode:lr-tb;text-anchor:start;fill:#000000;fill-opacity:1;stroke:none;stroke-width:1px;stroke-linecap:butt;stroke-linejoin:miter;stroke-opacity:1"
       x="23.467304"
       y="296.94449"
       id="text4231"
       sodipodi:linespacing="100%"><tspan
         sodipodi:role="line"
         x="23.467304"
         y="296.94449"
         id="tspan4241">Manifeste pour le développement Agile de logiciels</tspan></text>
    <text
       xml:space="preserve"
       style="font-style:normal;font-variant:normal;font-weight:500;font-stretch:normal;font-size:22.12842369px;line-height:100%;font-family:'Lucida Grande';-inkscape-font-specification:'Lucida Grande, Medium';text-align:center;letter-spacing:0px;word-spacing:0px;writing-mode:lr-tb;text-anchor:middle;fill:#000000;fill-opacity:1;stroke:none;stroke-width:1px;stroke-linecap:butt;stroke-linejoin:miter;stroke-opacity:1"
       x="369.95059"
       y="356.88037"
       id="text4258"
       sodipodi:linespacing="100%"><tspan
         sodipodi:role="line"
         id="tspan4260"
         x="369.95059"
         y="356.88037">Nous découvrons comment mieux développer des logiciels</tspan><tspan
         sodipodi:role="line"
         x="369.95059"
         y="379.00879"
         id="tspan4262">par la pratique et en aidant les autres à le faire.</tspan><tspan
         sodipodi:role="line"
         x="373.45139"
         y="401.13721"
         id="tspan4264">Ces expériences nous ont amenés à valoriser </tspan></text>
    <text
       xml:space="preserve"
       style="font-style:normal;font-variant:normal;font-weight:500;font-stretch:normal;font-size:20px;line-height:100%;font-family:'Lucida Grande';-inkscape-font-specification:'Lucida Grande, Medium';text-align:center;letter-spacing:0px;word-spacing:0px;writing-mode:lr-tb;text-anchor:middle;fill:#000000;fill-opacity:1;stroke:none;stroke-width:1px;stroke-linecap:butt;stroke-linejoin:miter;stroke-opacity:1"
       x="370.18311"
       y="970.21277"
       id="text4272"
       sodipodi:linespacing="100%"><tspan
         sodipodi:role="line"
         id="tspan4274"
         x="370.18311"
         y="970.21277">Nous reconnaissons la valeur des seconds éléments,</tspan><tspan
         sodipodi:role="line"
         x="370.18311"
         y="990.21277"
         id="tspan4276">mais privilégions les premiers</tspan></text>
    <text
       xml:space="preserve"
       style="font-style:normal;font-variant:normal;font-weight:500;font-stretch:normal;font-size:20px;line-height:100%;font-family:'Lucida Grande';-inkscape-font-specification:'Lucida Grande, Medium';text-align:start;letter-spacing:0px;word-spacing:0px;writing-mode:lr-tb;text-anchor:start;fill:#000000;fill-opacity:1;stroke:none;stroke-width:1px;stroke-linecap:butt;stroke-linejoin:miter;stroke-opacity:1"
       x="34.187004"
       y="517.89087"
       id="text4278"
       sodipodi:linespacing="100%"><tspan
         sodipodi:role="line"
         id="tspan4280"
         x="34.187004"
         y="517.89087">Les individus et leurs interactions plus que les processus et les outils</tspan></text>
    <text
       xml:space="preserve"
       style="font-style:normal;font-variant:normal;font-weight:500;font-stretch:normal;font-size:20px;line-height:100%;font-family:'Lucida Grande';-inkscape-font-specification:'Lucida Grande, Medium';text-align:start;letter-spacing:0px;word-spacing:0px;writing-mode:lr-tb;text-anchor:start;fill:#000000;fill-opacity:1;stroke:none;stroke-width:1px;stroke-linecap:butt;stroke-linejoin:miter;stroke-opacity:1"
       x="47.258293"
       y="620.60443"
       id="text4282"
       sodipodi:linespacing="100%"><tspan
         sodipodi:role="line"
         id="tspan4284"
         x="47.258293"
         y="620.60443">Des logiciels opérationnels plus qu’une documentation exhaustive</tspan></text>
    <text
       xml:space="preserve"
       style="font-style:normal;font-variant:normal;font-weight:500;font-stretch:normal;font-size:20px;line-height:100%;font-family:'Lucida Grande';-inkscape-font-specification:'Lucida Grande, Medium';text-align:start;letter-spacing:0px;word-spacing:0px;writing-mode:lr-tb;text-anchor:start;fill:#000000;fill-opacity:1;stroke:none;stroke-width:1px;stroke-linecap:butt;stroke-linejoin:miter;stroke-opacity:1"
       x="33.937981"
       y="722.79797"
       id="text4286"
       sodipodi:linespacing="100%"><tspan
         sodipodi:role="line"
         id="tspan4288"
         x="33.937981"
         y="722.79797">La collaboration avec les clients plus que la négociation contractuelle</tspan></text>
    <g
       id="g5442"
       transform="translate(9.050852,16.162441)">
      <g
         style="fill:#404040"
         id="g4485"
         transform="matrix(0.30902995,0,0,0.30902995,186.22014,622.27402)">
        <g
           style="display:inline;fill:#404040"
           inkscape:label="assets"
           id="g4487">
          <g
             style="fill:#404040"
             id="g4489"
             transform="matrix(0.11960528,0,0,0.11960528,400.09121,-128.42167)" />
          <g
             style="fill:#404040"
             transform="translate(-1296,-806)"
             id="g4491">
            <rect
               style="fill:#404040;fill-opacity:1;fill-rule:nonzero;stroke:none"
               id="rect4493"
               width="46.25"
               height="63.5"
               x="1865.75"
               y="916.5"
               ry="23.625" />
            <ellipse
               style="fill:#404040;fill-opacity:1;fill-rule:nonzero;stroke:none"
               id="ellipse4495"
               transform="matrix(0.96771878,-0.25203247,0.25203247,0.96771878,-176.05692,500.84362)"
               cx="1861.875"
               cy="955.375"
               rx="4.375"
               ry="7.625" />
            <ellipse
               transform="matrix(-0.96771878,-0.25203247,-0.25203247,0.96771878,3953.6819,500.84362)"
               id="ellipse4497"
               style="fill:#404040;fill-opacity:1;fill-rule:nonzero;stroke:none"
               cx="1861.875"
               cy="955.375"
               rx="4.375"
               ry="7.625" />
            <path
               style="fill:#404040;fill-opacity:1;fill-rule:nonzero;stroke:none"
               d="m 1847.6562,995.375 c -4.6825,0.96383 -8.6318,3.73377 -8.8124,8.4688 0,0.1148 0,0.2278 0,0.3437 l 0,8.8437 8.8124,0 81.3438,0 8.8125,0 0,-8.8437 c 0,-0.1159 0,-0.2289 0,-0.3437 -0.1806,-4.73503 -4.1883,-7.25519 -8.8125,-8.4688 -8.6062,-2.25869 -20.6812,-5.96011 -26.75,-12.5 l -27.25,0 c -1.4054,2.8974 -13.0815,9.56431 -27.3438,12.5 z"
               id="path4499"
               inkscape:connector-curvature="0"
               sodipodi:nodetypes="scsccccscsccs" />
            <rect
               style="fill:#404040;fill-opacity:1;fill-rule:nonzero;stroke:none"
               id="rect4501"
               width="27.046835"
               height="29.698479"
               x="1875.0704"
               y="970.25989" />
          </g>
        </g>
      </g>
      <g
         transform="matrix(0.35465278,0,0,0.35465278,145.08635,612.82868)"
         id="g4446">
        <g
           id="layer2"
           inkscape:label="assets"
           style="display:inline">
          <g
             transform="matrix(0.11960528,0,0,0.11960528,400.09121,-128.42167)"
             id="g14319" />
          <g
             id="g6858"
             transform="translate(-1296,-806)">
            <rect
               ry="23.625"
               y="916.5"
               x="1865.75"
               height="63.5"
               width="46.25"
               id="rect6334"
               style="fill:#000000;fill-opacity:1;fill-rule:nonzero;stroke:none" />
            <ellipse
               ry="7.625"
               rx="4.375"
               cy="955.375"
               cx="1861.875"
               transform="matrix(0.96771878,-0.25203247,0.25203247,0.96771878,-176.05692,500.84362)"
               id="path6336"
               style="fill:#000000;fill-opacity:1;fill-rule:nonzero;stroke:none" />
            <ellipse
               ry="7.625"
               rx="4.375"
               cy="955.375"
               cx="1861.875"
               style="fill:#000000;fill-opacity:1;fill-rule:nonzero;stroke:none"
               id="path6338"
               transform="matrix(-0.96771878,-0.25203247,-0.25203247,0.96771878,3953.6819,500.84362)" />
            <path
               sodipodi:nodetypes="scsccccscsccs"
               inkscape:connector-curvature="0"
               id="rect6342"
               d="m 1847.6562,995.375 c -4.6825,0.96383 -8.6318,3.73377 -8.8124,8.4688 0,0.1148 0,0.2278 0,0.3437 l 0,8.8437 8.8124,0 81.3438,0 8.8125,0 0,-8.8437 c 0,-0.1159 0,-0.2289 0,-0.3437 -0.1806,-4.73503 -4.1883,-7.25519 -8.8125,-8.4688 -8.6062,-2.25869 -20.6812,-5.96011 -26.75,-12.5 l -27.25,0 c -1.4054,2.8974 -13.0815,9.56431 -27.3438,12.5 z"
               style="fill:#000000;fill-opacity:1;fill-rule:nonzero;stroke:none" />
            <rect
               y="970.25989"
               x="1875.0704"
               height="29.698479"
               width="27.046835"
               id="rect6348"
               style="fill:#000000;fill-opacity:1;fill-rule:nonzero;stroke:none" />
          </g>
        </g>
      </g>
    </g>
    <g
       id="g5462"
       transform="translate(10.983911,-15.152288)">
      <path
         style="fill:#404040;fill-opacity:1;fill-rule:nonzero;stroke:none"
         d="m 383.96327,478.77804 c 2.46291,0 4.43575,1.96304 4.43575,4.4137 l 0,17.24419 c 0,2.45065 -1.97284,4.41369 -4.43575,4.41369 l -0.94259,0 0,7.4963 -8.79635,-7.4963 -25.53323,0 c -2.46291,0 -4.4912,-1.96304 -4.4912,-4.41369 l 0,-17.24419 c 0,-2.45066 2.02829,-4.4137 4.4912,-4.4137 z"
         id="path5039"
         inkscape:connector-curvature="0"
         sodipodi:nodetypes="sssscccsssss" />
      <path
         sodipodi:nodetypes="sssscccsssss"
         inkscape:connector-curvature="0"
         id="path4007"
         d="m 334.33745,473.06841 c -2.46291,0 -4.43575,1.96303 -4.43575,4.41369 l 0,17.24419 c 0,2.45066 1.97284,4.41369 4.43575,4.41369 l 0.94259,0 0,7.4963 8.79635,-7.4963 25.53323,0 c 2.46291,0 4.4912,-1.96303 4.4912,-4.41369 l 0,-17.24419 c 0,-2.45066 -2.02829,-4.41369 -4.4912,-4.41369 z"
         style="fill:#000000;fill-opacity:1;fill-rule:nonzero;stroke:none" />
    </g>
    <g
       transform="translate(-3950.5915,1170.2704)"
       style="display:inline"
       inkscape:label="logo ombre"
       id="layer8" />
    <g
       id="g5422"
       transform="matrix(0.29240225,0,0,0.29240225,515.81029,315.36261)">
      <path
         inkscape:export-ydpi="90"
         inkscape:export-xdpi="90"
         inkscape:export-filename="/Users/x11406/Pictures/myIcons/export/gears-green.png"
         style="fill:#000000;fill-opacity:1;fill-rule:nonzero;stroke:none"
         d="m -553.25583,854.20332 c -3.21175,1.0396 -6.02602,2.93572 -6.20679,4.88337 0.0133,7.23863 0.63466,13.29006 0.92536,17.48864 -2.15248,1.49877 -4.14099,3.18613 -5.94475,5.03082 -6.71736,-1.05689 -17.13681,-3.50643 -17.0773,-3.65473 -4.57907,0.44973 -9.676,10.74206 -7.17726,13.75208 5.12581,5.10705 9.82834,8.94292 13.00271,11.70601 -0.45686,2.54154 -0.677,5.14038 -0.64906,7.76451 -5.49847,4.00201 -14.5838,9.63597 -14.6465,9.48914 -2.91993,3.55587 0.7509,14.44091 4.64622,14.80237 7.22855,-0.0132 13.2745,-0.62877 17.47242,-0.9201 1.49921,2.1535 3.18556,4.1404 5.03088,5.94484 -1.05755,6.7176 -3.5065,17.13683 -3.65473,17.07723 0.44963,4.57906 10.74207,9.67602 13.7521,7.17729 5.10835,-5.12719 8.95896,-9.83353 11.72212,-13.00796 2.63436,0.47343 5.3275,0.69428 8.04936,0.64626 2.22369,3.5732 5.26472,8.84179 9.49395,14.71644 2.57464,2.94521 13.56328,-0.46078 14.73502,-4.90985 -0.15636,0.0338 -0.91812,-10.64572 -0.89351,-17.44542 2.13958,-1.51257 4.10704,-3.21273 5.89675,-5.06883 4.09888,0.9542 9.97657,2.5133 17.1201,3.67664 3.90321,0.26208 9.25962,-9.89775 6.94186,-13.87242 -0.0853,0.135 -8.18997,-6.86983 -12.98132,-11.69513 0.43963,-2.54569 0.65784,-5.14409 0.61151,-7.77015 3.573,-2.22297 8.83379,-5.26532 14.70023,-9.48874 2.94533,-2.57461 -0.45543,-13.5472 -4.90475,-14.71873 0.0349,0.15482 -10.6116,0.90454 -17.41302,0.88293 -1.51602,-2.14638 -3.22876,-4.11333 -5.09028,-5.90766 0.95449,-4.09857 2.51949,-9.96637 3.6818,-17.10395 0.26215,-3.90309 -9.89768,-9.25958 -13.87235,-6.94173 0.1352,0.0854 -6.89082,8.18032 -11.71645,12.97023 -2.44154,-0.41937 -4.93132,-0.63537 -7.44784,-0.60866 -4.00281,-5.49653 -9.64137,-14.59977 -9.49441,-14.66259 -1.7779,-1.45996 -5.40007,-1.27151 -8.61187,-0.23205 z m 13.29703,40.38215 c 8.9226,-2.88673 18.48962,2.00313 21.37633,10.92566 2.88676,8.92269 -1.9978,18.50585 -10.92039,21.39259 -8.92262,2.88673 -18.49485,-2.01923 -21.38161,-10.94191 -2.88671,-8.92253 2.00305,-18.4896 10.92567,-21.37634 z"
         id="path4296"
         inkscape:connector-curvature="0" />
      <path
         inkscape:export-ydpi="90"
         inkscape:export-xdpi="90"
         inkscape:export-filename="/Users/x11406/Pictures/myIcons/export/gears-gray.png"
         inkscape:connector-curvature="0"
         id="path4346"
         d="m -447.39716,911.19183 c -2.17573,0.25523 -4.20682,1.10615 -4.56833,2.32283 -0.90738,4.60884 -1.27749,8.53916 -1.62365,11.24825 -1.55966,0.68162 -3.03878,1.50397 -4.42019,2.44991 -4.14178,-1.52272 -10.46355,-4.39996 -10.40695,-4.48691 -2.97134,-0.29309 -7.51762,5.61287 -6.30809,7.8448 2.61633,3.89906 5.12407,6.93554 6.7949,9.09577 -0.61236,1.55975 -1.08128,3.18603 -1.39551,4.85973 -4.00596,1.85162 -10.50137,4.28799 -10.52269,4.18666 -2.30838,1.89369 -1.34916,9.28621 1.08444,10.00917 4.60249,0.90619 8.52844,1.27922 11.23721,1.62505 0.68169,1.56024 1.50364,3.03817 2.44987,4.4202 -1.52305,4.14173 -4.39997,10.46352 -4.48677,10.40687 -0.2932,2.97132 5.61286,7.51769 7.84477,6.30799 3.90009,-2.61688 6.94632,-5.12532 9.10664,-6.7961 1.61683,0.63467 3.30297,1.11588 5.04149,1.4298 0.96318,2.55545 2.23216,6.29357 4.1807,10.56773 1.26609,2.2004 8.69103,1.4229 9.99971,-1.26074 -0.10358,0.003 0.76252,-6.89202 1.63851,-11.21653 1.55316,-0.69211 3.02045,-1.52539 4.39447,-2.48019 2.4881,1.12598 6.03182,2.86182 10.4313,4.50604 2.45119,0.66072 7.14581,-5.12811 6.17351,-7.9511 -0.0715,0.0752 -4.34355,-5.40861 -6.78262,-9.08598 0.60189,-1.56475 1.06951,-3.19093 1.37226,-4.86832 2.55544,-0.96267 6.28868,-2.23358 10.5569,-4.17943 2.2004,-1.26595 1.42411,-8.68006 -1.25948,-9.98861 0.002,0.10328 -6.8685,-0.76689 -11.1947,-1.64116 -0.69337,-1.55795 -1.53462,-3.02664 -2.4924,-4.40409 1.12606,-2.48789 2.86453,-6.02464 4.50739,-10.42042 0.66062,-2.45123 -5.12812,-7.14581 -7.95115,-6.17339 0.0752,0.0713 -5.42085,4.33461 -9.09823,6.7729 -1.50092,-0.57587 -3.05833,-1.02841 -4.6634,-1.32979 -1.85225,-4.0048 -4.28934,-10.51229 -4.18781,-10.53355 -0.94692,-1.15427 -3.27619,-1.49269 -5.45189,-1.23729 z m 3.3541,27.38471 c 6.04424,-0.70846 11.51476,3.61421 12.22319,9.65844 0.70844,6.04422 -3.61293,11.52572 -9.65717,12.23416 -6.04426,0.70848 -11.51608,-3.62517 -12.2245,-9.66941 -0.70848,-6.04437 3.61422,-11.51473 9.65848,-12.22319 z"
         style="fill:#404040;fill-opacity:1;fill-rule:nonzero;stroke:none" />
    </g>
    <g
       id="g5426"
       transform="matrix(0.29421922,0,0,0.29421922,264.20572,758.85473)">
      <circle
         style="opacity:1;fill:#000000;fill-opacity:1;fill-rule:nonzero;stroke:none;stroke-width:6;stroke-linecap:round;stroke-linejoin:round;stroke-miterlimit:4;stroke-dasharray:none;stroke-dashoffset:0;stroke-opacity:1"
         id="circle5428"
         cx="360.03275"
         cy="121.93993"
         r="81.606987" />
      <rect
         style="opacity:1;fill:#ffffff;fill-opacity:1;fill-rule:nonzero;stroke:none;stroke-width:6;stroke-linecap:round;stroke-linejoin:round;stroke-miterlimit:4;stroke-dasharray:none;stroke-dashoffset:0;stroke-opacity:1"
         id="rect5430"
         width="116.44899"
         height="11.977476"
         x="298.70081"
         y="128.87193" />
      <path
         style="opacity:1;fill:#ffffff;fill-opacity:1;fill-rule:nonzero;stroke:none;stroke-width:6;stroke-linecap:round;stroke-linejoin:round;stroke-miterlimit:4;stroke-dasharray:none;stroke-dashoffset:0;stroke-opacity:1"
         d="m 412.51055,125.1716 14.64027,9.70794 -14.64027,9.67017 z"
         id="path5432"
         inkscape:connector-curvature="0"
         sodipodi:nodetypes="cccc" />
      <path
         style="color:#000000;font-style:normal;font-variant:normal;font-weight:normal;font-stretch:normal;font-size:medium;line-height:normal;font-family:sans-serif;text-indent:0;text-align:start;text-decoration:none;text-decoration-line:none;text-decoration-style:solid;text-decoration-color:#000000;letter-spacing:normal;word-spacing:normal;text-transform:none;direction:ltr;block-progression:tb;writing-mode:lr-tb;baseline-shift:baseline;text-anchor:start;white-space:normal;clip-rule:nonzero;display:inline;overflow:visible;visibility:visible;opacity:1;isolation:auto;mix-blend-mode:normal;color-interpolation:sRGB;color-interpolation-filters:linearRGB;solid-color:#000000;solid-opacity:1;fill:#ffffff;fill-opacity:1;fill-rule:nonzero;stroke:none;stroke-width:15.69999981;stroke-linecap:round;stroke-linejoin:round;stroke-miterlimit:4;stroke-dasharray:none;stroke-dashoffset:0;stroke-opacity:1;color-rendering:auto;image-rendering:auto;shape-rendering:auto;text-rendering:auto;enable-background:accumulate"
         d="m 363.4896,66.744182 c -21.25595,0 -38.72136,16.872549 -39.68954,37.898198 l 12.45586,0 c 0.93782,-14.283089 12.70063,-25.463989 27.23368,-25.463989 15.1523,0 27.30329,12.151 27.30329,27.303289 0,11.76096 -7.32208,21.70819 -17.68449,25.57383 l 15.45382,5.20077 c 8.93643,-7.29902 14.66488,-18.39247 14.66488,-30.7746 0,-21.872579 -17.86492,-39.737498 -39.7375,-39.737498 z"
         id="path5434"
         inkscape:connector-curvature="0" />
      <path
         sodipodi:nodetypes="cccc"
         inkscape:connector-curvature="0"
         id="path5436"
         d="m 339.5313,102.64823 -9.70794,14.64027 -9.67017,-14.64027 z"
         style="opacity:1;fill:#ffffff;fill-opacity:1;fill-rule:nonzero;stroke:none;stroke-width:6;stroke-linecap:round;stroke-linejoin:round;stroke-miterlimit:4;stroke-dasharray:none;stroke-dashoffset:0;stroke-opacity:1" />
    </g>
  </g>
</svg>
