<?xml version="1.0" encoding="UTF-8" standalone="no"?>
<svg
   xmlns:dc="http://purl.org/dc/elements/1.1/"
   xmlns:cc="http://creativecommons.org/ns#"
   xmlns:rdf="http://www.w3.org/1999/02/22-rdf-syntax-ns#"
   xmlns:svg="http://www.w3.org/2000/svg"
   xmlns="http://www.w3.org/2000/svg"
   xmlns:sodipodi="http://sodipodi.sourceforge.net/DTD/sodipodi-0.dtd"
   xmlns:inkscape="http://www.inkscape.org/namespaces/inkscape"
   width="24px"
   height="120px"
   version="1.1"
   id="svg2"
   inkscape:version="0.91 r13725"
   sodipodi:docname="extension-manager-sprite.svg">
  <metadata
     id="metadata12">
    <rdf:RDF>
      <cc:Work
         rdf:about="">
        <dc:format>image/svg+xml</dc:format>
        <dc:type
           rdf:resource="http://purl.org/dc/dcmitype/StillImage" />
        <dc:title></dc:title>
      </cc:Work>
    </rdf:RDF>
  </metadata>
  <defs
     id="defs10" />
  <sodipodi:namedview
     pagecolor="#ffffff"
     bordercolor="#666666"
     borderopacity="1"
     objecttolerance="10"
     gridtolerance="10"
     guidetolerance="10"
     inkscape:pageopacity="0"
     inkscape:pageshadow="2"
     inkscape:window-width="822"
     inkscape:window-height="480"
     id="namedview8"
     showgrid="false"
     inkscape:zoom="1.9666667"
     inkscape:cx="12"
     inkscape:cy="60"
     inkscape:window-x="324"
     inkscape:window-y="54"
     inkscape:window-maximized="0"
     inkscape:current-layer="svg2" />
  <path
     transform="translate(3, 6)"
     fill="#bbb"
     d="M7,2.25C7,0.75,6.532,0,4.971,0C3.471,0,3,0.812,3,2.25L3,3L2,3C0.44,3,0,3.75,0,5.25L0,11.25C0,12.779,0.44,13.042,2,13.042L16,13.042C17.563,13.042,18.004,12.779,18.004,11.25L18.004,5.25C18.004,3.75,17.563,3,16,3L15,3L15,2.25C15,0.812,14.471,0,12.971,0C11.409,0,11,0.75,11,2.25L11,3L7,3L7,2.25L7,2.25Z"
     id="path4" />
  <path
     transform="translate(3, 28)"
     fill="#91CC41"
     d="M4.971,2C3.471,2,3,2.812,3,4.25L3,5L2,5C0.44,5,0,5.75,0,7.25L0,13.25C0,14.779,0.44,15.042,2,15.042L16,15.042C17.563,15.042,18.004,14.779,18.004,13.25L18.004,7.25C18.004,5.75,17.563,5,16,5L15,5L15,4.25C15,2.812,14.471,2,12.971,2C11.409,2,11,2.75,11,4.25L11,5L7,5L7,4.25C7,2.75,6.532,2,4.971,2ZM18,4C19.1045696,4,20,3.10456955,20,2C20,0.895430446,19.1045696,0,18,0C16.8954304,0,16,0.895430446,16,2C16,3.10456955,16.8954304,4,18,4Z"
     id="path6" />
</svg>
