<?xml version="1.0" encoding="UTF-8" standalone="no"?>
<!-- Copyright (c) 2014 Adobe Systems Incorporated. All rights reserved. -->

<svg
   xmlns:dc="http://purl.org/dc/elements/1.1/"
   xmlns:cc="http://creativecommons.org/ns#"
   xmlns:rdf="http://www.w3.org/1999/02/22-rdf-syntax-ns#"
   xmlns:svg="http://www.w3.org/2000/svg"
   xmlns="http://www.w3.org/2000/svg"
   xmlns:sodipodi="http://sodipodi.sourceforge.net/DTD/sodipodi-0.dtd"
   xmlns:inkscape="http://www.inkscape.org/namespaces/inkscape"
   width="24"
   height="120px"
   id="svg2"
   version="1.1"
   inkscape:version="0.91 r13725"
   sodipodi:docname="extract-icon.svg">
  <metadata
     id="metadata50">
    <rdf:RDF>
      <cc:Work
         rdf:about="">
        <dc:format>image/svg+xml</dc:format>
        <dc:type
           rdf:resource="http://purl.org/dc/dcmitype/StillImage" />
        <dc:title></dc:title>
      </cc:Work>
    </rdf:RDF>
  </metadata>
  <defs
     id="defs48" />
  <sodipodi:namedview
     pagecolor="#ffffff"
     bordercolor="#666666"
     borderopacity="1"
     objecttolerance="10"
     gridtolerance="10"
     guidetolerance="10"
     inkscape:pageopacity="0"
     inkscape:pageshadow="2"
     inkscape:window-width="822"
     inkscape:window-height="480"
     id="namedview46"
     showgrid="false"
     inkscape:zoom="1.9666667"
     inkscape:cx="12"
     inkscape:cy="60"
     inkscape:window-x="0"
     inkscape:window-y="0"
     inkscape:window-maximized="0"
     inkscape:current-layer="svg2" />
  <g
     stroke="none"
     stroke-width="1"
     fill="none"
     fill-rule="evenodd"
     id="g4">
    <g
       transform="translate(3.000000, 2.000000)"
       fill="#BBBBBB"
       id="g6">
      <path
         d="M13.346,3.631 L9.507,-0.251 L5.654,3.631 L7.361,4.249 L9.007,2.499 L9.007,10.5 L9.96,10.5 L9.96,2.5 L11.639,4.249 L13.346,3.631 Z"
         id="path8" />
      <path
         d="M13.572,15.05 L15.666,15.2 L9.5,18.136 L3.334,15.2 L5.428,15.05 L3.493,13.537 L0.464,15.2 L9.5,20.163 L18.536,15.2 L15.507,13.537 L13.572,15.05 Z"
         id="path10" />
      <path
         d="M11,6.188 L11,8.215 L15.666,10.327 L9.5,13.262 L3.334,10.327 L8,8.215 L8,6.188 L0.464,10.326 L9.5,15.289 L18.536,10.326 L11,6.188 Z"
         id="path12" />
    </g>
    <g
       transform="translate(3.000000, 26.000000)"
       fill="#91CC42"
       id="g14">
      <path
         d="M13.346,3.631 L9.507,-0.251 L5.654,3.631 L7.361,4.249 L9.007,2.499 L9.007,10.5 L9.96,10.5 L9.96,2.5 L11.639,4.249 L13.346,3.631 Z"
         id="path16" />
      <path
         d="M13.572,15.05 L15.666,15.2 L9.5,18.136 L3.334,15.2 L5.428,15.05 L3.493,13.537 L0.464,15.2 L9.5,20.163 L18.536,15.2 L15.507,13.537 L13.572,15.05 Z"
         id="path18" />
      <path
         d="M11,6.188 L11,8.215 L15.666,10.327 L9.5,13.262 L3.334,10.327 L8,8.215 L8,6.188 L0.464,10.326 L9.5,15.289 L18.536,10.326 L11,6.188 Z"
         id="path20" />
    </g>
    <g
       transform="translate(3.000000, 50.000000)"
       fill="#78B2F2"
       id="g22">
      <path
         d="M13.346,3.631 L9.507,-0.251 L5.654,3.631 L7.361,4.249 L9.007,2.499 L9.007,10.5 L9.96,10.5 L9.96,2.5 L11.639,4.249 L13.346,3.631 Z"
         id="path24" />
      <path
         d="M13.572,15.05 L15.666,15.2 L9.5,18.136 L3.334,15.2 L5.428,15.05 L3.493,13.537 L0.464,15.2 L9.5,20.163 L18.536,15.2 L15.507,13.537 L13.572,15.05 Z"
         id="path26" />
      <path
         d="M11,6.188 L11,8.215 L15.666,10.327 L9.5,13.262 L3.334,10.327 L8,8.215 L8,6.188 L0.464,10.326 L9.5,15.289 L18.536,10.326 L11,6.188 Z"
         id="path28" />
    </g>
    <g
       transform="translate(3.000000, 74.000000)"
       fill="#E3B551"
       id="g30">
      <path
         d="M13.346,3.631 L9.507,-0.251 L5.654,3.631 L7.361,4.249 L9.007,2.499 L9.007,10.5 L9.96,10.5 L9.96,2.5 L11.639,4.249 L13.346,3.631 Z"
         id="path32" />
      <path
         d="M13.572,15.05 L15.666,15.2 L9.5,18.136 L3.334,15.2 L5.428,15.05 L3.493,13.537 L0.464,15.2 L9.5,20.163 L18.536,15.2 L15.507,13.537 L13.572,15.05 Z"
         id="path34" />
      <path
         d="M11,6.188 L11,8.215 L15.666,10.327 L9.5,13.262 L3.334,10.327 L8,8.215 L8,6.188 L0.464,10.326 L9.5,15.289 L18.536,10.326 L11,6.188 Z"
         id="path36" />
    </g>
    <g
       transform="translate(3.000000, 98.000000)"
       fill="#F74687"
       id="g38">
      <path
         d="M13.346,3.631 L9.507,-0.251 L5.654,3.631 L7.361,4.249 L9.007,2.499 L9.007,10.5 L9.96,10.5 L9.96,2.5 L11.639,4.249 L13.346,3.631 Z"
         id="path40" />
      <path
         d="M13.572,15.05 L15.666,15.2 L9.5,18.136 L3.334,15.2 L5.428,15.05 L3.493,13.537 L0.464,15.2 L9.5,20.163 L18.536,15.2 L15.507,13.537 L13.572,15.05 Z"
         id="path42" />
      <path
         d="M11,6.188 L11,8.215 L15.666,10.327 L9.5,13.262 L3.334,10.327 L8,8.215 L8,6.188 L0.464,10.326 L9.5,15.289 L18.536,10.326 L11,6.188 Z"
         id="path44" />
    </g>
  </g>
</svg>
